<svg width="2042" height="1126" viewBox="0 0 2042 1126" fill="none" xmlns="http://www.w3.org/2000/svg">
<mask id="mask0_1308_6318" style="mask-type:luminance" maskUnits="userSpaceOnUse" x="0" y="0" width="2042" height="1126">
<path d="M2042 0H0V1125.72H2042V0Z" fill="white"/>
</mask>
<g mask="url(#mask0_1308_6318)">
<path d="M328.414 187.107C337.413 187.107 344.879 189.357 350.912 193.652C356.843 198.049 359.911 206.128 359.911 217.786C359.911 225.763 358.275 235.273 355.003 246.42C351.935 257.362 347.64 269.327 341.913 282.417C336.391 295.506 329.846 309.21 322.278 323.322C314.915 337.537 306.836 351.751 298.144 365.864C289.656 380.079 280.657 393.884 271.146 407.178C261.84 420.575 252.535 432.949 243.331 444.402C225.026 467.309 209.072 486.739 195.471 502.488C181.768 518.032 170.11 531.326 160.293 542.166C150.68 553.109 142.499 562.006 135.749 568.755C129.205 575.607 123.273 581.436 118.16 586.344C112.945 591.253 108.138 595.752 103.843 599.843C99.4459 603.729 94.9463 608.024 90.3444 612.933C88.0946 622.75 87.072 632.158 87.072 641.158C87.2765 649.952 87.481 657.929 87.481 665.292C87.481 687.687 90.958 704.356 98.1164 715.196C105.479 726.139 115.706 731.559 128.796 731.559C137.488 731.559 146.18 729.411 154.975 725.014C163.974 720.412 172.769 714.583 181.564 707.424C190.563 700.061 199.153 691.88 207.334 682.881C215.515 673.677 223.287 664.371 230.65 655.065C238.013 645.555 244.558 636.453 250.285 627.659C256.216 618.966 261.431 611.297 265.829 604.752L280.146 615.796C279.328 616.614 276.669 620.603 272.374 627.659C268.283 634.817 262.659 643.407 255.602 653.429C248.751 663.553 240.57 674.291 231.059 685.744C221.446 697.198 211.118 707.833 199.971 717.651C189.029 727.264 177.473 735.24 165.201 741.785C153.134 748.33 140.76 751.602 127.977 751.602C117.547 751.602 107.525 749.557 97.7074 745.466C88.0946 741.376 79.709 735.138 72.346 726.65C64.983 717.958 58.9495 706.913 54.3476 693.517C49.9503 680.222 47.8027 664.065 47.8027 645.248C47.8027 621.83 50.4616 597.389 55.9838 572.027C61.7106 546.461 69.2781 520.691 78.8909 494.716C88.4014 468.843 99.5481 443.38 112.433 418.223C125.216 392.861 138.817 368.932 153.339 346.229C167.758 323.322 182.893 302.256 198.744 282.826C214.799 263.498 230.446 246.727 245.785 232.512C261.022 218.4 275.748 207.355 289.963 199.379C304.075 191.198 316.961 187.107 328.414 187.107ZM97.2983 578.572C119.08 555.972 140.249 533.065 160.702 509.851C181.154 486.433 200.176 463.423 217.969 440.721C235.968 417.814 252.432 395.725 267.465 374.454C282.395 352.979 295.076 332.628 305.507 313.505C316.142 294.484 324.324 277.099 330.05 261.555C335.982 245.806 339.05 232.103 339.05 220.65C339.05 218.809 337.925 216.048 335.777 212.468C333.834 208.991 331.482 207.151 328.823 207.151C320.847 207.151 310.211 212.468 296.917 223.104C283.827 233.739 269.613 248.261 254.375 266.464C239.036 284.462 223.287 305.631 206.925 329.867C190.563 353.899 175.121 379.669 160.702 407.178C146.487 434.79 133.704 463.219 122.251 492.671C111.002 521.918 102.718 550.552 97.2983 578.572Z" fill="black"/>
<path d="M445.837 664.474C433.77 678.381 421.908 691.267 410.249 702.925C398.796 714.685 387.342 724.809 375.889 733.195C364.435 741.376 352.982 747.818 341.528 752.42C330.279 757.329 319.03 759.783 307.577 759.783C297.759 759.783 288.863 757.943 280.988 754.466C273.012 751.193 266.262 746.489 260.536 740.149C254.809 733.911 250.514 726.241 247.446 717.242C244.173 708.038 242.537 697.607 242.537 686.153C242.537 668.462 246.525 650.157 254.4 631.34C262.376 612.524 272.194 594.321 284.261 576.527C296.226 558.835 309.418 542.064 323.939 526.213C338.358 510.158 352.164 495.943 365.253 483.671L382.025 495.125C372.719 508.828 362.39 524.372 350.937 541.757C339.483 558.937 328.643 576.834 318.621 595.343C308.497 613.649 299.907 631.954 292.851 650.157C285.999 668.462 282.624 685.54 282.624 701.288C282.624 711.924 284.465 720.923 288.351 728.286C292.442 735.649 300.009 739.331 311.258 739.331C323.734 739.331 337.438 734.626 352.164 725.014C366.89 715.196 382.025 702.516 397.569 686.972C413.113 671.223 428.657 653.429 444.201 633.794C459.745 613.955 474.471 594.014 488.379 574.073C502.287 553.927 514.967 534.701 526.421 516.396C537.874 498.193 547.283 482.649 554.646 469.764L582.461 483.671C567.735 512.919 553.419 540.121 539.511 565.482C525.807 590.844 513.74 613.649 503.105 633.794C492.469 654.043 483.879 671.632 477.334 686.563C470.994 701.595 467.926 713.458 467.926 722.15C467.926 725.729 468.744 728.695 470.38 731.149C472.017 733.399 474.471 734.422 477.743 734.422C487.254 734.729 497.787 730.638 509.241 722.15C520.694 713.765 532.25 703.129 544.01 690.244C555.668 677.154 567.122 663.042 578.371 647.702C589.518 632.465 599.642 618.148 608.641 604.752L622.549 615.796C620.913 618.25 617.64 623.466 612.731 631.34C607.823 639.317 601.687 648.418 594.324 658.747C587.166 669.178 578.984 680.018 569.781 691.471C560.475 702.72 550.657 713.049 540.329 722.559C530.205 731.865 519.569 739.535 508.423 745.466C497.48 751.398 486.538 754.466 475.698 754.466C469.153 754.466 463.12 753.238 457.7 750.784C452.484 748.637 448.087 745.671 444.61 741.785C441.031 738.001 438.167 733.502 436.02 728.286C433.77 723.173 432.747 717.651 432.747 711.924C432.747 705.379 433.77 698.221 436.02 690.244C438.474 682.063 441.747 673.473 445.837 664.474Z" fill="black"/>
<path d="M929.586 538.894C936.949 530.201 944.517 522.123 952.493 514.76C960.674 507.192 968.651 500.647 976.628 495.125C984.502 489.705 992.376 485.614 1000.35 482.853C1008.23 479.888 1015.69 478.354 1022.85 478.354C1028.58 478.354 1034.1 479.376 1039.62 481.217C1045.04 483.16 1049.95 486.126 1054.35 490.216C1058.95 494.102 1062.53 499.113 1064.98 505.351C1067.44 511.385 1068.66 518.748 1068.66 527.44C1068.66 539.712 1067.03 551.881 1063.76 563.846C1060.48 575.913 1056.19 587.571 1051.08 599.025C1045.86 610.274 1040.44 621.114 1034.71 631.749C1028.99 642.18 1023.46 652.202 1018.35 662.019C1013.14 671.632 1008.74 680.733 1005.26 689.426C1001.99 697.914 1000.35 705.686 1000.35 712.742C1000.35 718.469 1001.78 722.559 1004.85 725.014C1007.82 727.468 1010.99 728.695 1014.26 728.695C1021.01 728.695 1028.99 724.911 1037.99 717.242C1047.19 709.367 1056.9 699.448 1067.03 687.381C1077.05 675.416 1087.17 662.224 1097.3 647.702C1107.32 632.976 1117.04 618.659 1126.34 604.752L1140.25 615.796C1136.98 621.011 1132.58 628.068 1127.16 637.067C1121.94 645.862 1115.81 655.372 1108.75 665.701C1101.9 675.825 1094.44 686.051 1086.25 696.38C1078.07 706.811 1069.28 716.219 1060.07 724.605C1051.08 733.092 1041.67 739.944 1031.85 745.057C1022.03 750.17 1012.22 752.829 1002.4 752.829C996.876 752.829 991.763 752.011 986.854 750.375C981.945 748.943 977.446 746.693 973.355 743.421C969.469 739.944 966.401 735.24 963.947 729.513C961.697 723.786 960.674 716.832 960.674 708.651C960.674 697.198 962.515 686.153 966.401 675.518C970.492 664.678 975.4 654.043 981.127 643.612C987.058 632.976 993.501 622.545 1000.35 612.115C1007.1 601.479 1013.44 591.151 1019.17 581.026C1025.1 570.698 1030.01 560.369 1033.9 549.938C1037.99 539.303 1040.03 528.667 1040.03 518.032C1040.03 512.612 1038.91 508.215 1036.76 504.942C1034.82 501.67 1031.03 500.034 1025.31 500.034C1016.31 500.034 1006.69 503.715 996.671 511.078C986.547 518.441 976.014 528.463 965.174 540.939C954.539 553.211 943.494 567.528 932.041 583.89C920.792 600.252 909.645 617.637 898.498 635.84C887.249 653.838 876.205 672.143 865.365 690.653C854.423 709.265 843.889 727.263 833.868 744.648L801.552 727.468C815.153 699.448 827.834 674.291 839.594 652.202C851.559 630.113 862.092 610.274 871.091 592.48C880.091 574.482 887.147 558.119 892.362 543.393C897.475 528.463 900.134 514.351 900.134 501.261C900.134 498.806 899.828 496.25 899.316 493.489C898.703 490.83 897.68 488.478 896.044 486.535C894.612 484.387 892.771 482.649 890.317 481.217C887.863 479.888 884.693 479.172 880.909 479.172C872.114 479.172 863.319 483.262 854.32 491.443C845.321 499.42 835.708 510.465 825.686 524.577C815.562 538.485 804.825 554.847 793.371 573.663C781.918 592.275 769.441 611.91 756.147 632.567C743.057 653.327 728.741 674.7 713.196 696.789C697.857 718.878 681.086 740.149 662.883 760.601L636.294 743.012C644.475 730.74 653.065 717.855 662.065 704.152C671.268 690.244 680.268 676.234 689.062 662.019C698.061 647.907 706.652 633.794 714.833 619.887C723.014 605.774 730.07 592.378 736.104 579.799C742.342 567.323 747.25 555.665 750.829 545.03C754.306 534.394 756.147 525.395 756.147 518.032C756.147 509.34 753.897 503.102 749.602 499.216C745.205 495.125 739.58 493.08 732.831 493.08C724.65 493.08 716.571 496.148 708.697 502.079C700.72 508.112 692.437 516.6 683.745 527.44C675.257 538.076 665.951 551.063 655.929 566.3C646.112 581.333 634.863 597.798 622.386 615.796L608.479 604.752C622.08 583.276 634.351 564.255 645.293 547.893C656.133 531.326 666.564 517.521 676.382 506.578C686.199 495.432 695.812 486.944 705.424 481.217C715.242 475.49 725.673 472.627 736.922 472.627C740.194 472.627 744.387 473.343 749.602 474.672C755.022 476.104 760.34 478.354 765.555 481.626C770.669 484.899 775.168 489.603 779.054 495.534C783.145 501.568 785.599 509.237 786.417 518.441C800.836 499.931 815.869 485.205 831.413 474.263C847.162 463.116 862.092 457.492 876 457.492C886.022 457.492 894.51 459.537 901.362 463.628C908.111 467.514 913.735 472.627 918.133 479.172C922.428 485.512 925.598 492.671 927.541 500.852C929.382 509.033 930.404 517.214 930.404 525.395C930.404 527.338 930.2 529.486 929.995 531.94C929.995 534.19 929.791 536.439 929.586 538.894Z" fill="black"/>
<path d="M1343.86 643.612C1344.88 643.919 1345.9 644.021 1346.72 644.021C1347.74 644.021 1348.97 644.021 1350.4 644.021C1357.77 644.021 1364.31 643.407 1370.04 641.976C1375.97 640.646 1381.49 638.499 1386.4 635.431C1391.51 632.158 1396.42 628.068 1401.13 623.159C1405.73 618.25 1410.23 612.115 1414.62 604.752L1428.53 615.796C1415.95 633.283 1403.17 645.555 1390.08 652.611C1376.99 659.463 1363.08 662.837 1348.36 662.837C1343.14 662.837 1338.34 662.326 1334.04 661.201C1323.1 679.813 1311.24 695.562 1298.45 708.651C1285.87 721.537 1273.09 731.968 1260 740.149C1246.91 748.33 1233.92 754.261 1221.14 758.147C1208.26 761.931 1196.29 763.874 1185.15 763.874C1173.9 763.874 1163.47 761.828 1153.65 757.738C1144.04 753.852 1135.75 748.33 1128.7 740.967C1121.95 733.399 1116.63 724.4 1112.74 713.969C1108.96 703.64 1107.02 692.085 1107.02 679.199C1107.02 666.417 1109.06 653.327 1113.15 639.93C1117.24 626.636 1122.87 613.342 1129.92 600.252C1136.98 587.162 1145.26 574.482 1154.88 562.21C1164.39 549.938 1174.61 538.689 1185.55 528.258C1196.7 517.623 1208.15 508.112 1219.91 499.625C1231.88 490.932 1243.74 483.978 1255.5 478.763L1267.77 494.716C1254.07 504.533 1240.16 517.009 1226.05 531.94C1212.14 546.973 1199.46 563.335 1188.01 581.026C1176.55 598.82 1167.15 617.228 1159.78 636.249C1152.63 655.372 1149.15 673.882 1149.15 691.88C1149.15 708.242 1152.63 720.923 1159.78 729.922C1166.84 738.717 1177.78 743.012 1192.51 743.012C1203.96 743.012 1215.11 740.762 1226.05 736.058C1237.2 731.456 1247.93 725.218 1258.37 717.242C1269 709.06 1279.23 699.55 1289.04 688.608C1298.86 677.768 1308.07 666.11 1316.86 653.838C1309.5 649.543 1302.95 643.612 1297.23 636.249C1291.5 628.886 1286.69 620.602 1282.91 611.296C1279.02 601.786 1276.16 591.662 1274.32 581.026C1272.38 570.186 1271.46 559.142 1271.46 547.893C1271.46 536.439 1272.78 525.702 1275.55 515.578C1278.2 505.556 1282.09 496.761 1287 489.398C1292.11 481.831 1298.04 475.797 1304.59 471.4C1311.34 467.105 1318.91 464.855 1327.09 464.855C1334.14 464.855 1340.38 466.798 1345.9 470.582C1351.63 474.161 1356.33 479.172 1360.22 485.717C1364.31 492.262 1367.28 500.034 1369.22 509.033C1371.37 518.032 1372.49 527.747 1372.49 538.076C1372.49 545.745 1371.78 554.233 1370.45 563.437C1369.02 572.743 1367.17 582.151 1364.72 591.662C1362.47 600.968 1359.61 610.274 1356.13 619.478C1352.55 628.477 1348.46 636.556 1343.86 643.612ZM1291.5 547.893C1291.5 555.256 1292.01 563.335 1293.14 572.027C1294.46 580.822 1296.51 589.207 1299.27 597.389C1302.24 605.57 1305.92 613.239 1310.32 620.296C1314.61 627.454 1320.13 632.976 1326.68 637.067C1331.28 628.068 1335.06 618.966 1338.13 609.66C1341.4 600.15 1344.06 591.048 1346.31 582.254C1348.46 573.561 1349.99 565.482 1350.81 558.119C1351.83 550.552 1352.45 543.802 1352.45 538.076C1352.45 530.508 1351.73 523.35 1350.4 516.805C1348.97 510.26 1347.23 504.738 1345.09 500.034C1342.84 495.432 1340.18 491.75 1336.9 488.989C1333.84 486.33 1330.46 484.899 1326.68 484.899C1321.46 484.899 1316.66 486.739 1312.36 490.216C1307.96 493.489 1304.18 498.193 1300.91 504.124C1297.84 509.851 1295.59 516.6 1293.95 524.168C1292.32 531.531 1291.5 539.507 1291.5 547.893Z" fill="black"/>
<path d="M1657.85 615.796C1653.96 621.318 1649.36 628.886 1643.94 638.703C1638.73 648.316 1632.59 658.645 1625.53 669.791C1618.68 681.04 1611.01 692.494 1602.63 704.152C1594.44 715.605 1585.45 726.036 1575.63 735.24C1565.81 744.546 1554.97 752.011 1543.31 757.738C1531.86 763.669 1519.59 766.737 1506.5 766.737C1499.14 766.737 1492.18 765.612 1485.64 763.465C1479.3 761.215 1473.77 757.84 1468.87 753.238C1463.96 748.637 1459.97 742.91 1457 736.058C1454.24 729.309 1452.91 721.23 1452.91 711.924C1452.91 699.448 1455.37 686.358 1460.28 672.655C1465.39 658.747 1471.32 645.453 1477.86 632.567C1484.61 619.784 1491.36 608.024 1497.91 597.389C1504.66 586.753 1509.77 578.163 1513.04 571.618C1516.01 565.073 1517.54 559.551 1517.54 554.847C1517.54 551.575 1516.42 548.711 1514.27 546.257C1512.02 543.598 1509.36 540.939 1506.09 538.485C1502.82 536.031 1499.34 533.576 1495.86 531.122C1492.59 528.463 1489.73 524.986 1487.27 520.896C1480.93 531.326 1474.39 541.757 1467.64 552.393C1461.6 561.392 1455.16 571.516 1448.41 582.663C1441.56 593.912 1434.91 604.956 1428.37 615.796L1414.46 604.752L1497.09 475.49L1508.13 481.217C1507.52 482.853 1506.7 485.308 1505.68 488.58C1504.56 491.853 1504.04 495.534 1504.04 499.625C1504.04 502.386 1504.45 505.147 1505.27 507.806C1506.09 510.567 1507.93 513.021 1511 515.169C1521.33 524.475 1529.41 531.735 1535.13 536.849C1541.06 541.757 1545.46 545.746 1548.22 548.711C1550.88 551.779 1552.52 554.233 1553.13 556.074C1553.64 558.017 1553.95 560.472 1553.95 563.437C1553.95 566.71 1553.33 570.596 1552.31 574.891C1551.49 579.288 1549.86 584.606 1547.4 590.844C1544.95 596.877 1541.47 604.138 1537.18 612.524C1533.09 620.705 1527.77 630.42 1521.22 641.567C1517.34 648.111 1513.55 654.861 1509.77 661.61C1506.19 668.462 1502.92 675.416 1499.95 682.472C1496.89 689.324 1494.43 696.278 1492.59 703.334C1490.95 710.185 1490.14 716.833 1490.14 723.378C1490.14 728.286 1490.75 732.274 1492.18 735.24C1493.51 738.001 1495.25 740.149 1497.5 741.785C1499.95 743.421 1502.51 744.546 1505.27 745.057C1507.93 745.364 1510.69 745.466 1513.45 745.466C1521.84 745.466 1530.22 743.012 1538.4 738.103C1546.79 733.195 1554.97 726.854 1562.95 718.878C1571.13 710.697 1579 701.595 1586.67 691.471C1594.24 681.449 1601.5 671.019 1608.35 660.383C1615.41 649.748 1621.85 639.726 1627.58 630.113C1633.51 620.603 1638.83 612.115 1643.53 604.752L1657.85 615.796Z" fill="black"/>
<path d="M1950.42 492.262C1947.15 498.807 1942.34 507.601 1936.1 518.441C1930.07 529.077 1923.53 540.939 1916.47 554.029C1909.62 567.119 1902.66 580.822 1895.61 594.934C1888.76 608.842 1882.31 622.648 1876.38 636.249C1870.66 649.952 1865.85 662.735 1862.07 674.7C1858.49 686.46 1856.75 696.38 1856.75 704.561C1856.75 713.049 1858.18 718.469 1861.25 720.923C1864.52 723.377 1868.71 724.605 1873.93 724.605C1881.5 724.605 1889.17 722.457 1896.84 718.06C1904.71 713.458 1912.48 707.731 1920.15 700.879C1927.72 694.13 1935.08 686.358 1942.24 677.563C1949.6 668.564 1956.35 659.769 1962.69 650.975C1968.93 641.976 1974.66 633.59 1979.87 625.613C1984.99 617.432 1989.38 610.478 1992.96 604.752L2006.87 615.796C2002.47 623.977 1997.26 632.874 1991.33 642.385C1985.29 651.997 1978.75 661.508 1971.69 671.018C1964.53 680.631 1956.97 689.835 1948.79 698.834C1940.6 707.833 1931.81 715.912 1922.61 722.968C1913.61 729.82 1903.99 735.24 1893.97 739.331C1883.85 743.421 1873.62 745.466 1863.29 745.466C1847.75 745.466 1836.3 740.967 1828.93 731.968C1821.77 722.764 1818.3 710.697 1818.3 695.971C1818.3 694.948 1818.3 692.698 1818.3 689.426C1818.5 685.949 1818.91 683.086 1819.52 680.836C1806.64 696.993 1794.37 710.288 1782.71 720.923C1770.95 731.559 1759.6 740.046 1748.76 746.285C1737.82 752.216 1727.18 756.511 1716.85 758.965C1706.73 761.42 1697.01 762.647 1687.81 762.647C1678.2 762.647 1669.09 761.01 1660.4 757.738C1651.61 754.466 1644.04 749.761 1637.49 743.83C1630.95 737.592 1625.94 729.922 1622.36 720.923C1618.58 711.924 1616.63 701.595 1616.63 689.835C1616.63 675.109 1619.91 658.338 1626.45 639.521C1632.99 620.5 1644.55 600.048 1661.22 578.163C1675.33 559.347 1690.06 543.598 1705.4 530.713C1720.94 517.93 1736.08 507.601 1750.8 499.625C1765.53 491.75 1779.54 486.126 1792.94 482.853C1806.23 479.581 1818.3 477.945 1828.93 477.945C1852.66 477.945 1870.45 481.933 1882.52 489.807C1894.48 497.477 1901.85 509.442 1904.61 525.804C1909.72 519.259 1915.04 512.919 1920.56 506.579C1926.29 500.034 1932.12 493.387 1938.15 486.535L1950.42 492.262ZM1831.8 638.703C1835.27 633.283 1839.36 626.432 1844.07 618.25C1848.98 609.865 1854.09 601.275 1859.61 592.48C1865.03 583.481 1870.35 574.891 1875.56 566.71C1880.68 558.529 1885.18 551.575 1889.06 545.848C1889.06 543.394 1888.65 539.712 1887.84 534.803C1887.22 529.69 1885.59 524.475 1882.93 519.259C1880.17 513.839 1875.67 509.237 1869.43 505.351C1863.09 501.568 1854.5 499.625 1843.66 499.625C1835.48 499.625 1826.48 500.852 1816.66 503.306C1806.84 505.76 1796.31 509.851 1785.16 515.578C1773.91 521.305 1762.36 528.974 1750.39 538.485C1738.63 548.098 1726.87 559.96 1715.21 574.073C1697.22 595.343 1683.41 616.819 1673.9 638.294C1664.29 659.565 1659.58 678.995 1659.58 696.38C1659.58 710.901 1662.86 722.15 1669.4 730.331C1676.15 738.308 1685.76 742.194 1698.03 742.194C1712.15 742.194 1725.44 739.126 1737.71 732.786C1749.98 726.548 1761.54 718.367 1772.48 708.242C1783.32 698.221 1793.55 687.176 1803.16 675.109C1812.98 662.837 1822.49 650.77 1831.8 638.703Z" fill="black"/>
</g>
</svg>
